<svg width="100%" height="100%" viewBox="0 0 48 48" fill="none" xmlns="http://www.w3.org/2000/svg">
  <rect width="48" height="48" rx="8" fill="#111827"/>
  <path d="M24 12C19.6 12 16 15.6 16 20C16 22.6 17.2 25 19.1 26.5C17.8 27.3 16.6 28.3 15.7 29.6C14.3 31.5 14 33.3 14 35H34C34 33.3 33.7 31.5 32.3 29.6C31.4 28.3 30.2 27.3 28.9 26.5C30.8 25 32 22.6 32 20C32 15.6 28.4 12 24 12Z" fill="#3B82F6"/>
  <path d="M20 20H28" stroke="white" stroke-width="2" stroke-linecap="round"/>
  <path d="M22 24H26" stroke="white" stroke-width="2" stroke-linecap="round"/>
</svg>